<?xml version="1.0" encoding="UTF-8"?>
<svg width="16" height="16" viewBox="0 0 16 16" version="1.1" xmlns="http://www.w3.org/2000/svg">
  <rect fill="rgba(13,82,211,1)" x="0" y="0" width="1" height="1"/><rect fill="rgba(12,83,212,1)" x="1" y="0" width="1" height="1"/><rect fill="rgba(11,84,214,1)" x="2" y="0" width="1" height="1"/><rect fill="rgba(10,84,215,1)" x="3" y="0" width="1" height="1"/><rect fill="rgba(10,85,216,1)" x="4" y="0" width="1" height="1"/><rect fill="rgba(9,86,218,1)" x="5" y="0" width="1" height="1"/><rect fill="rgba(8,87,219,1)" x="6" y="0" width="1" height="1"/><rect fill="rgba(7,88,220,1)" x="7" y="0" width="1" height="1"/><rect fill="rgba(6,89,222,1)" x="8" y="0" width="1" height="1"/><rect fill="rgba(5,90,223,1)" x="9" y="0" width="1" height="1"/><rect fill="rgba(4,90,224,1)" x="10" y="0" width="1" height="1"/><rect fill="rgba(4,91,225,1)" x="11" y="0" width="1" height="1"/><rect fill="rgba(3,92,227,1)" x="12" y="0" width="1" height="1"/><rect fill="rgba(2,93,228,1)" x="13" y="0" width="1" height="1"/><rect fill="rgba(1,94,229,1)" x="14" y="0" width="1" height="1"/><rect fill="rgba(1,94,230,1)" x="15" y="0" width="1" height="1"/><rect fill="rgba(14,80,209,1)" x="0" y="1" width="1" height="1"/><rect fill="rgba(13,81,210,1)" x="1" y="1" width="1" height="1"/><rect fill="rgba(13,82,212,1)" x="2" y="1" width="1" height="1"/><rect fill="rgba(12,83,213,1)" x="3" y="1" width="1" height="1"/><rect fill="rgba(11,84,214,1)" x="4" y="1" width="1" height="1"/><rect fill="rgba(10,85,216,1)" x="5" y="1" width="1" height="1"/><rect fill="rgba(9,86,217,1)" x="6" y="1" width="1" height="1"/><rect fill="rgba(8,87,218,1)" x="7" y="1" width="1" height="1"/><rect fill="rgba(7,87,220,1)" x="8" y="1" width="1" height="1"/><rect fill="rgba(7,88,221,1)" x="9" y="1" width="1" height="1"/><rect fill="rgba(6,89,222,1)" x="10" y="1" width="1" height="1"/><rect fill="rgba(5,90,223,1)" x="11" y="1" width="1" height="1"/><rect fill="rgba(4,91,224,1)" x="12" y="1" width="1" height="1"/><rect fill="rgba(3,91,226,1)" x="13" y="1" width="1" height="1"/><rect fill="rgba(3,92,227,1)" x="14" y="1" width="1" height="1"/><rect fill="rgba(2,93,228,1)" x="15" y="1" width="1" height="1"/><rect fill="rgba(16,79,207,1)" x="0" y="2" width="1" height="1"/><rect fill="rgba(15,80,208,1)" x="1" y="2" width="1" height="1"/><rect fill="rgba(14,81,210,1)" x="2" y="2" width="1" height="1"/><rect fill="rgba(13,82,211,1)" x="3" y="2" width="1" height="1"/><rect fill="rgba(12,83,212,1)" x="4" y="2" width="1" height="1"/><rect fill="rgba(11,84,214,1)" x="5" y="2" width="1" height="1"/><rect fill="rgba(10,84,215,1)" x="6" y="2" width="1" height="1"/><rect fill="rgba(10,85,216,1)" x="7" y="2" width="1" height="1"/><rect fill="rgba(9,86,217,1)" x="8" y="2" width="1" height="1"/><rect fill="rgba(8,87,219,1)" x="9" y="2" width="1" height="1"/><rect fill="rgba(7,88,220,1)" x="10" y="2" width="1" height="1"/><rect fill="rgba(6,89,221,1)" x="11" y="2" width="1" height="1"/><rect fill="rgba(6,89,222,1)" x="12" y="2" width="1" height="1"/><rect fill="rgba(5,90,224,1)" x="13" y="2" width="1" height="1"/><rect fill="rgba(4,91,225,1)" x="14" y="2" width="1" height="1"/><rect fill="rgba(3,92,226,1)" x="15" y="2" width="1" height="1"/><rect fill="rgba(17,78,205,1)" x="0" y="3" width="1" height="1"/><rect fill="rgba(16,79,207,1)" x="1" y="3" width="1" height="1"/><rect fill="rgba(15,80,208,1)" x="2" y="3" width="1" height="1"/><rect fill="rgba(14,81,209,1)" x="3" y="3" width="1" height="1"/><rect fill="rgba(13,81,210,1)" x="4" y="3" width="1" height="1"/><rect fill="rgba(12,82,212,1)" x="5" y="3" width="1" height="1"/><rect fill="rgba(12,83,213,1)" x="6" y="3" width="1" height="1"/><rect fill="rgba(11,84,214,1)" x="7" y="3" width="1" height="1"/><rect fill="rgba(10,85,215,1)" x="8" y="3" width="1" height="1"/><rect fill="rgba(9,86,217,1)" x="9" y="3" width="1" height="1"/><rect fill="rgba(8,86,218,1)" x="10" y="3" width="1" height="1"/><rect fill="rgba(8,87,219,1)" x="11" y="3" width="1" height="1"/><rect fill="rgba(7,88,220,1)" x="12" y="3" width="1" height="1"/><rect fill="rgba(6,89,222,1)" x="13" y="3" width="1" height="1"/><rect fill="rgba(5,89,223,1)" x="14" y="3" width="1" height="1"/><rect fill="rgba(5,90,224,1)" x="15" y="3" width="1" height="1"/><rect fill="rgba(18,77,203,1)" x="0" y="4" width="1" height="1"/><rect fill="rgba(17,78,205,1)" x="1" y="4" width="1" height="1"/><rect fill="rgba(16,78,206,1)" x="2" y="4" width="1" height="1"/><rect fill="rgba(15,79,207,1)" x="3" y="4" width="1" height="1"/><rect fill="rgba(15,80,209,1)" x="4" y="4" width="1" height="1"/><rect fill="rgba(14,81,210,1)" x="5" y="4" width="1" height="1"/><rect fill="rgba(13,82,211,1)" x="6" y="4" width="1" height="1"/><rect fill="rgba(12,83,212,1)" x="7" y="4" width="1" height="1"/><rect fill="rgba(11,84,214,1)" x="8" y="4" width="1" height="1"/><rect fill="rgba(11,84,215,1)" x="9" y="4" width="1" height="1"/><rect fill="rgba(10,85,216,1)" x="10" y="4" width="1" height="1"/><rect fill="rgba(9,86,217,1)" x="11" y="4" width="1" height="1"/><rect fill="rgba(8,87,218,1)" x="12" y="4" width="1" height="1"/><rect fill="rgba(7,87,220,1)" x="13" y="4" width="1" height="1"/><rect fill="rgba(7,88,221,1)" x="14" y="4" width="1" height="1"/><rect fill="rgba(6,89,222,1)" x="15" y="4" width="1" height="1"/><rect fill="rgba(19,76,201,1)" x="0" y="5" width="1" height="1"/><rect fill="rgba(18,76,203,1)" x="1" y="5" width="1" height="1"/><rect fill="rgba(17,77,204,1)" x="2" y="5" width="1" height="1"/><rect fill="rgba(17,78,205,1)" x="3" y="5" width="1" height="1"/><rect fill="rgba(16,79,207,1)" x="4" y="5" width="1" height="1"/><rect fill="rgba(15,80,208,1)" x="5" y="5" width="1" height="1"/><rect fill="rgba(14,81,209,1)" x="6" y="5" width="1" height="1"/><rect fill="rgba(13,81,210,1)" x="7" y="5" width="1" height="1"/><rect fill="rgba(13,82,212,1)" x="8" y="5" width="1" height="1"/><rect fill="rgba(12,83,213,1)" x="9" y="5" width="1" height="1"/><rect fill="rgba(11,84,214,1)" x="10" y="5" width="1" height="1"/><rect fill="rgba(10,85,215,1)" x="11" y="5" width="1" height="1"/><rect fill="rgba(10,85,216,1)" x="12" y="5" width="1" height="1"/><rect fill="rgba(9,86,217,1)" x="13" y="5" width="1" height="1"/><rect fill="rgba(8,87,218,1)" x="14" y="5" width="1" height="1"/><rect fill="rgba(7,87,220,1)" x="15" y="5" width="1" height="1"/><rect fill="rgba(20,74,199,1)" x="0" y="6" width="1" height="1"/><rect fill="rgba(20,75,201,1)" x="1" y="6" width="1" height="1"/><rect fill="rgba(19,76,202,1)" x="2" y="6" width="1" height="1"/><rect fill="rgba(18,77,203,1)" x="3" y="6" width="1" height="1"/><rect fill="rgba(17,78,205,1)" x="4" y="6" width="1" height="1"/><rect fill="rgba(16,78,206,1)" x="5" y="6" width="1" height="1"/><rect fill="rgba(16,79,207,1)" x="6" y="6" width="1" height="1"/><rect fill="rgba(15,80,208,1)" x="7" y="6" width="1" height="1"/><rect fill="rgba(14,81,210,1)" x="8" y="6" width="1" height="1"/><rect fill="rgba(13,82,211,1)" x="9" y="6" width="1" height="1"/><rect fill="rgba(12,82,212,1)" x="10" y="6" width="1" height="1"/><rect fill="rgba(12,83,213,1)" x="11" y="6" width="1" height="1"/><rect fill="rgba(11,84,214,1)" x="12" y="6" width="1" height="1"/><rect fill="rgba(10,85,215,1)" x="13" y="6" width="1" height="1"/><rect fill="rgba(9,85,216,1)" x="14" y="6" width="1" height="1"/><rect fill="rgba(9,86,217,1)" x="15" y="6" width="1" height="1"/><rect fill="rgba(22,73,198,1)" x="0" y="7" width="1" height="1"/><rect fill="rgba(21,74,199,1)" x="1" y="7" width="1" height="1"/><rect fill="rgba(20,75,200,1)" x="2" y="7" width="1" height="1"/><rect fill="rgba(19,76,201,1)" x="3" y="7" width="1" height="1"/><rect fill="rgba(18,76,203,1)" x="4" y="7" width="1" height="1"/><rect fill="rgba(18,77,204,1)" x="5" y="7" width="1" height="1"/><rect fill="rgba(17,78,205,1)" x="6" y="7" width="1" height="1"/><rect fill="rgba(16,79,206,1)" x="7" y="7" width="1" height="1"/><rect fill="rgba(15,80,208,1)" x="8" y="7" width="1" height="1"/><rect fill="rgba(15,80,209,1)" x="9" y="7" width="1" height="1"/><rect fill="rgba(14,81,210,1)" x="10" y="7" width="1" height="1"/><rect fill="rgba(13,82,211,1)" x="11" y="7" width="1" height="1"/><rect fill="rgba(12,83,212,1)" x="12" y="7" width="1" height="1"/><rect fill="rgba(12,83,213,1)" x="13" y="7" width="1" height="1"/><rect fill="rgba(11,84,214,1)" x="14" y="7" width="1" height="1"/><rect fill="rgba(10,85,215,1)" x="15" y="7" width="1" height="1"/><rect fill="rgba(23,72,196,1)" x="0" y="8" width="1" height="1"/><rect fill="rgba(22,73,197,1)" x="1" y="8" width="1" height="1"/><rect fill="rgba(21,73,198,1)" x="2" y="8" width="1" height="1"/><rect fill="rgba(20,74,199,1)" x="3" y="8" width="1" height="1"/><rect fill="rgba(20,75,201,1)" x="4" y="8" width="1" height="1"/><rect fill="rgba(19,76,202,1)" x="5" y="8" width="1" height="1"/><rect fill="rgba(18,77,203,1)" x="6" y="8" width="1" height="1"/><rect fill="rgba(17,77,204,1)" x="7" y="8" width="1" height="1"/><rect fill="rgba(16,78,206,1)" x="8" y="8" width="1" height="1"/><rect fill="rgba(16,79,207,1)" x="9" y="8" width="1" height="1"/><rect fill="rgba(15,80,208,1)" x="10" y="8" width="1" height="1"/><rect fill="rgba(14,80,209,1)" x="11" y="8" width="1" height="1"/><rect fill="rgba(14,81,210,1)" x="12" y="8" width="1" height="1"/><rect fill="rgba(13,82,211,1)" x="13" y="8" width="1" height="1"/><rect fill="rgba(12,83,212,1)" x="14" y="8" width="1" height="1"/><rect fill="rgba(12,83,213,1)" x="15" y="8" width="1" height="1"/><rect fill="rgba(24,71,194,1)" x="0" y="9" width="1" height="1"/><rect fill="rgba(23,71,195,1)" x="1" y="9" width="1" height="1"/><rect fill="rgba(22,72,196,1)" x="2" y="9" width="1" height="1"/><rect fill="rgba(22,73,198,1)" x="3" y="9" width="1" height="1"/><rect fill="rgba(21,74,199,1)" x="4" y="9" width="1" height="1"/><rect fill="rgba(20,75,200,1)" x="5" y="9" width="1" height="1"/><rect fill="rgba(19,75,201,1)" x="6" y="9" width="1" height="1"/><rect fill="rgba(19,76,202,1)" x="7" y="9" width="1" height="1"/><rect fill="rgba(18,77,204,1)" x="8" y="9" width="1" height="1"/><rect fill="rgba(17,78,205,1)" x="9" y="9" width="1" height="1"/><rect fill="rgba(16,78,206,1)" x="10" y="9" width="1" height="1"/><rect fill="rgba(16,79,207,1)" x="11" y="9" width="1" height="1"/><rect fill="rgba(15,80,208,1)" x="12" y="9" width="1" height="1"/><rect fill="rgba(14,81,209,1)" x="13" y="9" width="1" height="1"/><rect fill="rgba(14,81,210,1)" x="14" y="9" width="1" height="1"/><rect fill="rgba(13,82,211,1)" x="15" y="9" width="1" height="1"/><rect fill="rgba(25,69,192,1)" x="0" y="10" width="1" height="1"/><rect fill="rgba(24,70,193,1)" x="1" y="10" width="1" height="1"/><rect fill="rgba(24,71,195,1)" x="2" y="10" width="1" height="1"/><rect fill="rgba(23,72,196,1)" x="3" y="10" width="1" height="1"/><rect fill="rgba(22,73,197,1)" x="4" y="10" width="1" height="1"/><rect fill="rgba(21,73,198,1)" x="5" y="10" width="1" height="1"/><rect fill="rgba(21,74,199,1)" x="6" y="10" width="1" height="1"/><rect fill="rgba(20,75,200,1)" x="7" y="10" width="1" height="1"/><rect fill="rgba(19,76,201,1)" x="8" y="10" width="1" height="1"/><rect fill="rgba(18,76,203,1)" x="9" y="10" width="1" height="1"/><rect fill="rgba(18,77,204,1)" x="10" y="10" width="1" height="1"/><rect fill="rgba(17,78,205,1)" x="11" y="10" width="1" height="1"/><rect fill="rgba(16,78,206,1)" x="12" y="10" width="1" height="1"/><rect fill="rgba(16,79,207,1)" x="13" y="10" width="1" height="1"/><rect fill="rgba(15,80,208,1)" x="14" y="10" width="1" height="1"/><rect fill="rgba(14,80,209,1)" x="15" y="10" width="1" height="1"/><rect fill="rgba(27,68,190,1)" x="0" y="11" width="1" height="1"/><rect fill="rgba(26,69,191,1)" x="1" y="11" width="1" height="1"/><rect fill="rgba(25,70,193,1)" x="2" y="11" width="1" height="1"/><rect fill="rgba(24,71,194,1)" x="3" y="11" width="1" height="1"/><rect fill="rgba(23,71,195,1)" x="4" y="11" width="1" height="1"/><rect fill="rgba(23,72,196,1)" x="5" y="11" width="1" height="1"/><rect fill="rgba(22,73,197,1)" x="6" y="11" width="1" height="1"/><rect fill="rgba(21,74,198,1)" x="7" y="11" width="1" height="1"/><rect fill="rgba(20,74,199,1)" x="8" y="11" width="1" height="1"/><rect fill="rgba(20,75,201,1)" x="9" y="11" width="1" height="1"/><rect fill="rgba(19,76,202,1)" x="10" y="11" width="1" height="1"/><rect fill="rgba(18,77,203,1)" x="11" y="11" width="1" height="1"/><rect fill="rgba(18,77,204,1)" x="12" y="11" width="1" height="1"/><rect fill="rgba(17,78,205,1)" x="13" y="11" width="1" height="1"/><rect fill="rgba(16,78,206,1)" x="14" y="11" width="1" height="1"/><rect fill="rgba(16,79,207,1)" x="15" y="11" width="1" height="1"/><rect fill="rgba(28,67,188,1)" x="0" y="12" width="1" height="1"/><rect fill="rgba(27,68,189,1)" x="1" y="12" width="1" height="1"/><rect fill="rgba(26,68,191,1)" x="2" y="12" width="1" height="1"/><rect fill="rgba(25,69,192,1)" x="3" y="12" width="1" height="1"/><rect fill="rgba(25,70,193,1)" x="4" y="12" width="1" height="1"/><rect fill="rgba(24,71,194,1)" x="5" y="12" width="1" height="1"/><rect fill="rgba(23,71,195,1)" x="6" y="12" width="1" height="1"/><rect fill="rgba(22,72,196,1)" x="7" y="12" width="1" height="1"/><rect fill="rgba(22,73,197,1)" x="8" y="12" width="1" height="1"/><rect fill="rgba(21,74,199,1)" x="9" y="12" width="1" height="1"/><rect fill="rgba(20,74,200,1)" x="10" y="12" width="1" height="1"/><rect fill="rgba(20,75,201,1)" x="11" y="12" width="1" height="1"/><rect fill="rgba(19,76,202,1)" x="12" y="12" width="1" height="1"/><rect fill="rgba(18,77,203,1)" x="13" y="12" width="1" height="1"/><rect fill="rgba(18,77,204,1)" x="14" y="12" width="1" height="1"/><rect fill="rgba(17,78,205,1)" x="15" y="12" width="1" height="1"/><rect fill="rgba(29,66,186,1)" x="0" y="13" width="1" height="1"/><rect fill="rgba(28,66,187,1)" x="1" y="13" width="1" height="1"/><rect fill="rgba(27,67,189,1)" x="2" y="13" width="1" height="1"/><rect fill="rgba(27,68,190,1)" x="3" y="13" width="1" height="1"/><rect fill="rgba(26,69,191,1)" x="4" y="13" width="1" height="1"/><rect fill="rgba(25,69,192,1)" x="5" y="13" width="1" height="1"/><rect fill="rgba(24,70,193,1)" x="6" y="13" width="1" height="1"/><rect fill="rgba(24,71,195,1)" x="7" y="13" width="1" height="1"/><rect fill="rgba(23,72,195,1)" x="8" y="13" width="1" height="1"/><rect fill="rgba(22,72,196,1)" x="9" y="13" width="1" height="1"/><rect fill="rgba(22,73,198,1)" x="10" y="13" width="1" height="1"/><rect fill="rgba(21,74,199,1)" x="11" y="13" width="1" height="1"/><rect fill="rgba(20,74,200,1)" x="12" y="13" width="1" height="1"/><rect fill="rgba(20,75,201,1)" x="13" y="13" width="1" height="1"/><rect fill="rgba(19,76,202,1)" x="14" y="13" width="1" height="1"/><rect fill="rgba(18,76,203,1)" x="15" y="13" width="1" height="1"/><rect fill="rgba(30,64,184,1)" x="0" y="14" width="1" height="1"/><rect fill="rgba(29,65,186,1)" x="1" y="14" width="1" height="1"/><rect fill="rgba(29,66,187,1)" x="2" y="14" width="1" height="1"/><rect fill="rgba(28,67,188,1)" x="3" y="14" width="1" height="1"/><rect fill="rgba(27,67,189,1)" x="4" y="14" width="1" height="1"/><rect fill="rgba(27,68,190,1)" x="5" y="14" width="1" height="1"/><rect fill="rgba(26,69,191,1)" x="6" y="14" width="1" height="1"/><rect fill="rgba(25,70,192,1)" x="7" y="14" width="1" height="1"/><rect fill="rgba(24,70,194,1)" x="8" y="14" width="1" height="1"/><rect fill="rgba(24,71,195,1)" x="9" y="14" width="1" height="1"/><rect fill="rgba(23,72,196,1)" x="10" y="14" width="1" height="1"/><rect fill="rgba(22,72,197,1)" x="11" y="14" width="1" height="1"/><rect fill="rgba(22,73,198,1)" x="12" y="14" width="1" height="1"/><rect fill="rgba(21,74,199,1)" x="13" y="14" width="1" height="1"/><rect fill="rgba(20,74,200,1)" x="14" y="14" width="1" height="1"/><rect fill="rgba(20,75,201,1)" x="15" y="14" width="1" height="1"/><rect fill="rgba(31,63,183,1)" x="0" y="15" width="1" height="1"/><rect fill="rgba(31,64,184,1)" x="1" y="15" width="1" height="1"/><rect fill="rgba(30,65,185,1)" x="2" y="15" width="1" height="1"/><rect fill="rgba(29,65,186,1)" x="3" y="15" width="1" height="1"/><rect fill="rgba(28,66,187,1)" x="4" y="15" width="1" height="1"/><rect fill="rgba(28,67,188,1)" x="5" y="15" width="1" height="1"/><rect fill="rgba(27,68,189,1)" x="6" y="15" width="1" height="1"/><rect fill="rgba(26,68,190,1)" x="7" y="15" width="1" height="1"/><rect fill="rgba(26,69,192,1)" x="8" y="15" width="1" height="1"/><rect fill="rgba(25,70,193,1)" x="9" y="15" width="1" height="1"/><rect fill="rgba(24,70,194,1)" x="10" y="15" width="1" height="1"/><rect fill="rgba(24,71,195,1)" x="11" y="15" width="1" height="1"/><rect fill="rgba(23,72,195,1)" x="12" y="15" width="1" height="1"/><rect fill="rgba(22,72,196,1)" x="13" y="15" width="1" height="1"/><rect fill="rgba(22,73,197,1)" x="14" y="15" width="1" height="1"/><rect fill="rgba(21,74,198,1)" x="15" y="15" width="1" height="1"/>
</svg>